<svg xmlns="http://www.w3.org/2000/svg" version="1.1" data-width="1287" data-height="964" class="icms-hetu-svg" width="1287" height="964"><defs><linearGradient x1="0%" y1="0%" x2="0%" y2="100%" id="mx-gradient-f7f9ff-1-ffffff-1-s-0"><stop offset="0%" style="stop-color:#F7F9FF" /><stop offset="100%" style="stop-color:#ffffff" /></linearGradient></defs><g transform="translate(0.5,0.5)"><rect x="642" y="1" width="320" height="40" fill="#ffffff" stroke="#595959" pointer-events="none" /><g><switch><foreignObject style="overflow: visible; text-align: left;" pointer-events="none" width="100%" height="100%" requiredFeatures="http://www.w3.org/TR/SVG11/feature#Extensibility"><div xmlns="http://www.w3.org/1999/xhtml" style="display: flex; align-items: unsafe center; justify-content: unsafe center; width: 318px; height: 1px; padding-top: 21px; margin-left: 643px;"><div style="box-sizing: border-box; font-size: 0; text-align: center; "><div style="display: inline-block; font-size: 16px; font-family: PingFangSC-Regular; color: #252525; line-height: 1.2; pointer-events: none; white-space: normal; word-wrap: normal; ">工具</div></div></div></foreignObject><text x="802" y="26" fill="#252525" font-family="PingFangSC-Regular" font-size="16px" text-anchor="middle">[Not supported by viewer]</text></switch></g><rect x="962" y="1" width="320" height="40" fill="#ffffff" stroke="#595959" pointer-events="none" /><g><switch><foreignObject style="overflow: visible; text-align: left;" pointer-events="none" width="100%" height="100%" requiredFeatures="http://www.w3.org/TR/SVG11/feature#Extensibility"><div xmlns="http://www.w3.org/1999/xhtml" style="display: flex; align-items: unsafe center; justify-content: unsafe center; width: 318px; height: 1px; padding-top: 21px; margin-left: 963px;"><div style="box-sizing: border-box; font-size: 0; text-align: center; "><div style="display: inline-block; font-size: 16px; font-family: PingFangSC-Regular; color: #252525; line-height: 1.2; pointer-events: none; white-space: normal; word-wrap: normal; ">大模型</div></div></div></foreignObject><text x="1122" y="26" fill="#252525" font-family="PingFangSC-Regular" font-size="16px" text-anchor="middle">[Not supported by viewer]</text></switch></g><rect x="324" y="1" width="318" height="40" fill="#ffffff" stroke="#595959" pointer-events="none" /><g><switch><foreignObject style="overflow: visible; text-align: left;" pointer-events="none" width="100%" height="100%" requiredFeatures="http://www.w3.org/TR/SVG11/feature#Extensibility"><div xmlns="http://www.w3.org/1999/xhtml" style="display: flex; align-items: unsafe center; justify-content: unsafe center; width: 316px; height: 1px; padding-top: 21px; margin-left: 325px;"><div style="box-sizing: border-box; font-size: 0; text-align: center; "><div style="display: inline-block; font-size: 16px; font-family: PingFangSC-Regular; color: #252525; line-height: 1.2; pointer-events: none; white-space: normal; word-wrap: normal; ">程序</div></div></div></foreignObject><text x="483" y="26" fill="#252525" font-family="PingFangSC-Regular" font-size="16px" text-anchor="middle">[Not supported by viewer]</text></switch></g><path d="M 602 181 L 1122 181 L 1122 312.88" fill="none" stroke="#595959" stroke-miterlimit="10" pointer-events="none" /><path d="M 1122 319.88 L 1118.5 312.88 L 1125.5 312.88 Z" fill="#595959" stroke="#595959" stroke-miterlimit="10" pointer-events="none" /><path d="M 1122 401 L 1122 432.88" fill="none" stroke="#595959" stroke-miterlimit="10" pointer-events="none" /><path d="M 1122 439.88 L 1118.5 432.88 L 1125.5 432.88 Z" fill="#595959" stroke="#595959" stroke-miterlimit="10" pointer-events="none" /><g><switch><foreignObject style="overflow: visible; text-align: left;" pointer-events="none" width="100%" height="100%" requiredFeatures="http://www.w3.org/TR/SVG11/feature#Extensibility"><div xmlns="http://www.w3.org/1999/xhtml" style="display: flex; align-items: unsafe center; justify-content: unsafe center; width: 1px; height: 1px; padding-top: 415px; margin-left: 1121px;"><div style="box-sizing: border-box; font-size: 0; text-align: center; "><div style="display: inline-block; font-size: 16px; font-family: PingFangSC-Regular; color: #595959; line-height: 1.2; pointer-events: none; background-color: #ffffff; white-space: nowrap; ">是</div></div></div></foreignObject><text x="1121" y="419" fill="#595959" font-family="PingFangSC-Regular" font-size="16px" text-anchor="middle">[Not supported by viewer]</text></switch></g><path d="M 1237 361 L 1257 361 L 1257 561 L 1122 561 L 1122 712.88" fill="none" stroke="#595959" stroke-miterlimit="10" pointer-events="none" /><path d="M 1122 719.88 L 1118.5 712.88 L 1125.5 712.88 Z" fill="#595959" stroke="#595959" stroke-miterlimit="10" pointer-events="none" /><g><switch><foreignObject style="overflow: visible; text-align: left;" pointer-events="none" width="100%" height="100%" requiredFeatures="http://www.w3.org/TR/SVG11/feature#Extensibility"><div xmlns="http://www.w3.org/1999/xhtml" style="display: flex; align-items: unsafe center; justify-content: unsafe center; width: 1px; height: 1px; padding-top: 352px; margin-left: 1245px;"><div style="box-sizing: border-box; font-size: 0; text-align: center; "><div style="display: inline-block; font-size: 16px; font-family: PingFangSC-Regular; color: #595959; line-height: 1.2; pointer-events: none; background-color: #ffffff; white-space: nowrap; ">否</div></div></div></foreignObject><text x="1245" y="356" fill="#595959" font-family="PingFangSC-Regular" font-size="16px" text-anchor="middle">[Not supported by viewer]</text></switch></g><path d="M 1122 321 L 1237 361 L 1122 401 L 1007 361 Z" fill="#ebf0ff" stroke="#000000" stroke-miterlimit="10" pointer-events="none" /><g><switch><foreignObject style="overflow: visible; text-align: left;" pointer-events="none" width="100%" height="100%" requiredFeatures="http://www.w3.org/TR/SVG11/feature#Extensibility"><div xmlns="http://www.w3.org/1999/xhtml" style="display: flex; align-items: unsafe center; justify-content: unsafe center; width: 228px; height: 1px; padding-top: 361px; margin-left: 1008px;"><div style="box-sizing: border-box; font-size: 0; text-align: center; "><div style="display: inline-block; font-size: 16px; font-family: PingFangSC-Regular; color: #252525; line-height: 1.2; pointer-events: none; white-space: normal; word-wrap: normal; ">判断是否需要调用工具</div></div></div></foreignObject><text x="1122" y="366" fill="#252525" font-family="PingFangSC-Regular" font-size="16px" text-anchor="middle">[Not supported by viewer]</text></switch></g><path d="M 594 281 L 1122 281 L 1122 312.88" fill="none" stroke="#595959" stroke-miterlimit="10" pointer-events="none" /><path d="M 1122 319.88 L 1118.5 312.88 L 1125.5 312.88 Z" fill="#595959" stroke="#595959" stroke-miterlimit="10" pointer-events="none" /><path d="M 1029.6 463.2 L 482 463.2 L 482 507.88" fill="none" stroke="#595959" stroke-miterlimit="10" pointer-events="none" /><path d="M 482 514.88 L 478.5 507.88 L 485.5 507.88 Z" fill="#595959" stroke="#595959" stroke-miterlimit="10" pointer-events="none" /><path d="M 1122 761 L 1122 781 L 482 781 L 482 792.88" fill="none" stroke="#595959" stroke-miterlimit="10" pointer-events="none" /><path d="M 482 799.88 L 478.5 792.88 L 485.5 792.88 Z" fill="#595959" stroke="#595959" stroke-miterlimit="10" pointer-events="none" /><rect x="1002" y="721" width="240" height="40" fill="#ebf0ff" stroke="#000000" pointer-events="none" /><g><switch><foreignObject style="overflow: visible; text-align: left;" pointer-events="none" width="100%" height="100%" requiredFeatures="http://www.w3.org/TR/SVG11/feature#Extensibility"><div xmlns="http://www.w3.org/1999/xhtml" style="display: flex; align-items: unsafe center; justify-content: unsafe center; width: 238px; height: 1px; padding-top: 741px; margin-left: 1003px;"><div style="box-sizing: border-box; font-size: 0; text-align: center; "><div style="display: inline-block; font-size: 16px; font-family: PingFangSC-Regular; color: #252525; line-height: 1.2; pointer-events: none; white-space: normal; word-wrap: normal; ">给出回复</div></div></div></foreignObject><text x="1122" y="746" fill="#252525" font-family="PingFangSC-Regular" font-size="16px" text-anchor="middle">[Not supported by viewer]</text></switch></g><path d="M 362 821 L 160.6 821 L 160.57 872.88" fill="none" stroke="#595959" stroke-miterlimit="10" pointer-events="none" /><path d="M 160.57 879.88 L 157.07 872.88 L 164.07 872.88 Z" fill="#595959" stroke="#595959" stroke-miterlimit="10" pointer-events="none" /><path d="M 602 538.5 L 802 538.5 L 802 592.88" fill="none" stroke="#595959" stroke-miterlimit="10" pointer-events="none" /><path d="M 802 599.88 L 798.5 592.88 L 805.5 592.88 Z" fill="#595959" stroke="#595959" stroke-miterlimit="10" pointer-events="none" /><rect x="362" y="516" width="240" height="45" fill="#ebf0ff" stroke="#1266ec" pointer-events="none" /><g><switch><foreignObject style="overflow: visible; text-align: left;" pointer-events="none" width="100%" height="100%" requiredFeatures="http://www.w3.org/TR/SVG11/feature#Extensibility"><div xmlns="http://www.w3.org/1999/xhtml" style="display: flex; align-items: unsafe center; justify-content: unsafe center; width: 238px; height: 1px; padding-top: 539px; margin-left: 363px;"><div style="box-sizing: border-box; font-size: 0; text-align: center; "><div style="display: inline-block; font-size: 16px; font-family: PingFangSC-Regular; color: #252525; line-height: 1.2; pointer-events: none; white-space: normal; word-wrap: normal; ">根据工具名称、入参<br style="font-size: 16px;" />调用工具</div></div></div></foreignObject><text x="482" y="543" fill="#252525" font-family="PingFangSC-Regular" font-size="16px" text-anchor="middle">[Not supported by viewer]</text></switch></g><path d="M 682 621 L 482 621 L 482 672.88" fill="none" stroke="#595959" stroke-miterlimit="10" pointer-events="none" /><path d="M 482 679.88 L 478.5 672.88 L 485.5 672.88 Z" fill="#595959" stroke="#595959" stroke-miterlimit="10" pointer-events="none" /><rect x="682" y="601" width="240" height="40" fill="#ebf0ff" stroke="#1266ec" pointer-events="none" /><g><switch><foreignObject style="overflow: visible; text-align: left;" pointer-events="none" width="100%" height="100%" requiredFeatures="http://www.w3.org/TR/SVG11/feature#Extensibility"><div xmlns="http://www.w3.org/1999/xhtml" style="display: flex; align-items: unsafe center; justify-content: unsafe center; width: 238px; height: 1px; padding-top: 621px; margin-left: 683px;"><div style="box-sizing: border-box; font-size: 0; text-align: center; "><div style="display: inline-block; font-size: 16px; font-family: PingFangSC-Regular; color: #252525; line-height: 1.2; pointer-events: none; white-space: normal; word-wrap: normal; ">输出工具调用结果</div></div></div></foreignObject><text x="802" y="626" fill="#252525" font-family="PingFangSC-Regular" font-size="16px" text-anchor="middle">[Not supported by viewer]</text></switch></g><path d="M 642 961 L 642 41" fill="none" stroke="#595959" stroke-miterlimit="10" stroke-dasharray="3 3" pointer-events="none" /><path d="M 962 961 L 962 41" fill="none" stroke="#595959" stroke-miterlimit="10" stroke-dasharray="3 3" pointer-events="none" /><path d="M 602 701 L 1122 701 L 1122 712.88" fill="none" stroke="#595959" stroke-miterlimit="10" pointer-events="none" /><path d="M 1122 719.88 L 1118.5 712.88 L 1125.5 712.88 Z" fill="#595959" stroke="#595959" stroke-miterlimit="10" pointer-events="none" /><rect x="362" y="681" width="240" height="40" fill="#ebf0ff" stroke="#1266ec" pointer-events="none" /><g><switch><foreignObject style="overflow: visible; text-align: left;" pointer-events="none" width="100%" height="100%" requiredFeatures="http://www.w3.org/TR/SVG11/feature#Extensibility"><div xmlns="http://www.w3.org/1999/xhtml" style="display: flex; align-items: unsafe center; justify-content: unsafe center; width: 238px; height: 1px; padding-top: 701px; margin-left: 363px;"><div style="box-sizing: border-box; font-size: 0; text-align: center; "><div style="display: inline-block; font-size: 16px; font-family: PingFangSC-Regular; color: #252525; line-height: 1.2; pointer-events: none; white-space: normal; word-wrap: normal; ">根据工具结果、用户问题<br style="font-size: 16px;" />调用大模型</div></div></div></foreignObject><text x="482" y="706" fill="#252525" font-family="PingFangSC-Regular" font-size="16px" text-anchor="middle">[Not supported by viewer]</text></switch></g><path d="M 362 181 L 362 183.03" fill="none" stroke="#595959" stroke-miterlimit="10" pointer-events="none" /><path d="M 362 181.03 L 363 183.03 L 361 183.03 Z" fill="#595959" stroke="#595959" stroke-miterlimit="10" pointer-events="none" /><path d="M 322 961 L 324 41" fill="none" stroke="#595959" stroke-miterlimit="10" stroke-dasharray="3 3" pointer-events="none" /><path d="M 1283 961 L 1283 41" fill="none" stroke="#595959" stroke-miterlimit="10" stroke-dasharray="3 3" pointer-events="none" /><rect x="0.57" y="1" width="323.43" height="40" fill="#ffffff" stroke="#595959" pointer-events="none" /><g><switch><foreignObject style="overflow: visible; text-align: left;" pointer-events="none" width="100%" height="100%" requiredFeatures="http://www.w3.org/TR/SVG11/feature#Extensibility"><div xmlns="http://www.w3.org/1999/xhtml" style="display: flex; align-items: unsafe center; justify-content: unsafe center; width: 321px; height: 1px; padding-top: 21px; margin-left: 2px;"><div style="box-sizing: border-box; font-size: 0; text-align: center; "><div style="display: inline-block; font-size: 16px; font-family: PingFangSC-Regular; color: #252525; line-height: 1.2; pointer-events: none; white-space: normal; word-wrap: normal; ">用户</div></div></div></foreignObject><text x="162" y="26" fill="#252525" font-family="PingFangSC-Regular" font-size="16px" text-anchor="middle">[Not supported by viewer]</text></switch></g><path d="M 2 961 L 1.57 41" fill="none" stroke="#595959" stroke-miterlimit="10" stroke-dasharray="3 3" pointer-events="none" /><path d="M 280.57 101 L 482 101 L 482 152.88" fill="none" stroke="#595959" stroke-miterlimit="10" pointer-events="none" /><path d="M 482 159.88 L 478.5 152.88 L 485.5 152.88 Z" fill="#595959" stroke="#595959" stroke-miterlimit="10" pointer-events="none" /><rect x="40.57" y="81" width="240" height="40" rx="20" ry="20" fill="url(#mx-gradient-f7f9ff-1-ffffff-1-s-0)" stroke="#0033cc" pointer-events="none" /><g><switch><foreignObject style="overflow: visible; text-align: left;" pointer-events="none" width="100%" height="100%" requiredFeatures="http://www.w3.org/TR/SVG11/feature#Extensibility"><div xmlns="http://www.w3.org/1999/xhtml" style="display: flex; align-items: unsafe center; justify-content: unsafe center; width: 238px; height: 1px; padding-top: 101px; margin-left: 42px;"><div style="box-sizing: border-box; font-size: 0; text-align: center; "><div style="display: inline-block; font-size: 16px; font-family: PingFangSC-Regular; color: #252525; line-height: 1.2; pointer-events: none; white-space: normal; word-wrap: normal; ">用户提问</div></div></div></foreignObject><text x="161" y="106" fill="#252525" font-family="PingFangSC-Regular" font-size="16px" text-anchor="middle">[Not supported by viewer]</text></switch></g><rect x="40.57" y="881" width="240" height="40" rx="20" ry="20" fill="#f7f9ff" stroke="#0033cc" pointer-events="none" /><g><switch><foreignObject style="overflow: visible; text-align: left;" pointer-events="none" width="100%" height="100%" requiredFeatures="http://www.w3.org/TR/SVG11/feature#Extensibility"><div xmlns="http://www.w3.org/1999/xhtml" style="display: flex; align-items: unsafe center; justify-content: unsafe center; width: 238px; height: 1px; padding-top: 901px; margin-left: 42px;"><div style="box-sizing: border-box; font-size: 0; text-align: center; "><div style="display: inline-block; font-size: 16px; font-family: PingFangSC-Regular; color: #252525; line-height: 1.2; pointer-events: none; white-space: normal; word-wrap: normal; ">大模型回复</div></div></div></foreignObject><text x="161" y="906" fill="#252525" font-family="PingFangSC-Regular" font-size="16px" text-anchor="middle">[Not supported by viewer]</text></switch></g><rect x="362" y="801" width="240" height="40" fill="#ebf0ff" stroke="#1266ec" pointer-events="none" /><g><switch><foreignObject style="overflow: visible; text-align: left;" pointer-events="none" width="100%" height="100%" requiredFeatures="http://www.w3.org/TR/SVG11/feature#Extensibility"><div xmlns="http://www.w3.org/1999/xhtml" style="display: flex; align-items: unsafe center; justify-content: unsafe center; width: 238px; height: 1px; padding-top: 821px; margin-left: 363px;"><div style="box-sizing: border-box; font-size: 0; text-align: center; "><div style="display: inline-block; font-size: 16px; font-family: PingFangSC-Regular; color: #252525; line-height: 1.2; pointer-events: none; white-space: normal; word-wrap: normal; ">返回大模型回复</div></div></div></foreignObject><text x="482" y="826" fill="#252525" font-family="PingFangSC-Regular" font-size="16px" text-anchor="middle">[Not supported by viewer]</text></switch></g><rect x="362" y="161" width="240" height="45" fill="#ebf0ff" stroke="#1266ec" pointer-events="none" /><g><switch><foreignObject style="overflow: visible; text-align: left;" pointer-events="none" width="100%" height="100%" requiredFeatures="http://www.w3.org/TR/SVG11/feature#Extensibility"><div xmlns="http://www.w3.org/1999/xhtml" style="display: flex; align-items: unsafe center; justify-content: unsafe center; width: 238px; height: 1px; padding-top: 184px; margin-left: 363px;"><div style="box-sizing: border-box; font-size: 0; text-align: center; "><div style="display: inline-block; font-size: 16px; font-family: PingFangSC-Regular; color: #252525; line-height: 1.2; pointer-events: none; white-space: normal; word-wrap: normal; ">根据用户问题<br style="font-size: 16px;" />调用大模型</div></div></div></foreignObject><text x="482" y="188" fill="#252525" font-family="PingFangSC-Regular" font-size="16px" text-anchor="middle">[Not supported by viewer]</text></switch></g><path d="M 364 321 L 384 241 L 604 241 L 584 321 Z" fill="#ebf0ff" stroke="#000000" stroke-miterlimit="10" pointer-events="none" /><g><switch><foreignObject style="overflow: visible; text-align: left;" pointer-events="none" width="100%" height="100%" requiredFeatures="http://www.w3.org/TR/SVG11/feature#Extensibility"><div xmlns="http://www.w3.org/1999/xhtml" style="display: flex; align-items: unsafe center; justify-content: unsafe center; width: 238px; height: 1px; padding-top: 281px; margin-left: 365px;"><div style="box-sizing: border-box; font-size: 0; text-align: center; "><div style="display: inline-block; font-size: 16px; font-family: PingFangSC-Regular; color: #252525; line-height: 1.2; pointer-events: none; white-space: normal; word-wrap: normal; ">工具信息<br /> - 天气查询，参数：地点<br />- 时间查询，参数：无</div></div></div></foreignObject><text x="484" y="286" fill="#252525" font-family="PingFangSC-Regular" font-size="16px" text-anchor="middle">[Not supported by viewer]</text></switch></g><path d="M 1017 501 L 1037 441 L 1227 441 L 1207 501 Z" fill="#ebf0ff" stroke="#000000" stroke-miterlimit="10" pointer-events="none" /><g><switch><foreignObject style="overflow: visible; text-align: left;" pointer-events="none" width="100%" height="100%" requiredFeatures="http://www.w3.org/TR/SVG11/feature#Extensibility"><div xmlns="http://www.w3.org/1999/xhtml" style="display: flex; align-items: unsafe center; justify-content: unsafe center; width: 208px; height: 1px; padding-top: 471px; margin-left: 1018px;"><div style="box-sizing: border-box; font-size: 0; text-align: center; "><div style="display: inline-block; font-size: 14px; font-family: PingFangSC-Regular; color: #252525; line-height: 1.2; pointer-events: none; white-space: normal; word-wrap: normal; ">输出工具名称<br />解析工具入参</div></div></div></foreignObject><text x="1122" y="475" fill="#252525" font-family="PingFangSC-Regular" font-size="14px" text-anchor="middle">[Not supported by viewer]</text></switch></g><rect x="714" y="139" width="36" height="36" fill-opacity="0" fill="#ffffff" stroke="none" pointer-events="none" /><rect x="714" y="139" width="0" height="0" fill="none" stroke="#000000" stroke-width="2" pointer-events="none" /><path d="M 732 143 C 724.28 143 718 149.28 718 157 C 718 164.72 724.28 171 732 171 C 739.72 171 746 164.72 746 157 C 746 149.28 739.72 143 732 143 Z M 732 169 C 725.38 169 720 163.62 720 157 C 720 150.38 725.38 145 732 145 C 738.62 145 744 150.38 744 157 C 744 163.62 738.62 169 732 169 Z M 728.9 153.09 L 728.9 155.4 L 731.17 154.04 L 731.17 162.95 L 733.32 162.95 L 733.32 151.05 L 732.38 151.05 L 728.9 153.09 Z" fill="#252525" stroke="none" pointer-events="none" /><g><switch><foreignObject style="overflow: visible; text-align: left;" pointer-events="none" width="100%" height="100%" requiredFeatures="http://www.w3.org/TR/SVG11/feature#Extensibility"><div xmlns="http://www.w3.org/1999/xhtml" style="display: flex; align-items: unsafe center; justify-content: unsafe center; width: 1px; height: 1px; padding-top: 157px; margin-left: 830px;"><div style="box-sizing: border-box; font-size: 0; text-align: center; "><div style="display: inline-block; font-size: 14px; font-family: PingFangSC-Regular; color: #252525; line-height: 1.2; pointer-events: none; white-space: nowrap; "><font style="font-size: 16px;">发起第一次模型调用</font></div></div></div></foreignObject><text x="830" y="161" fill="#252525" font-family="PingFangSC-Regular" font-size="14px" text-anchor="middle">[Not supported by viewer]</text></switch></g><rect x="714" y="419" width="36" height="36" fill-opacity="0" fill="#ffffff" stroke="none" pointer-events="none" /><rect x="714" y="419" width="0" height="0" fill="none" stroke="#000000" stroke-width="2" pointer-events="none" /><path d="M 732 423 C 724.28 423 718 429.28 718 437 C 718 444.72 724.28 451 732 451 C 739.72 451 746 444.72 746 437 C 746 429.28 739.72 423 732 423 Z M 732 449 C 725.38 449 720 443.62 720 437 C 720 430.38 725.38 425 732 425 C 738.62 425 744 430.38 744 437 C 744 443.62 738.62 449 732 449 Z M 734.38 437.19 C 735.06 436.29 735.4 435.35 735.4 434.37 C 735.4 433.39 735.09 432.51 734.46 431.87 C 733.83 431.23 732.96 430.92 731.85 430.92 C 731.2 430.92 730.61 431.06 730.08 431.34 C 729.55 431.62 729.12 431.99 728.8 432.47 C 728.48 432.95 728.31 433.48 728.27 434.08 L 730.24 434.45 C 730.31 433.95 730.47 433.57 730.74 433.29 C 731.01 433.02 731.36 432.88 731.79 432.88 C 732.27 432.88 732.63 433.02 732.88 433.3 C 733.13 433.58 733.25 433.96 733.25 434.45 C 733.25 434.8 733.18 435.14 733.05 435.47 C 732.92 435.8 732.68 436.18 732.34 436.61 L 728.09 442.1 L 728.09 442.95 L 735.65 442.95 L 735.65 440.98 L 731.47 440.98 L 734.38 437.19 Z" fill="#252525" stroke="none" pointer-events="none" /><g><switch><foreignObject style="overflow: visible; text-align: left;" pointer-events="none" width="100%" height="100%" requiredFeatures="http://www.w3.org/TR/SVG11/feature#Extensibility"><div xmlns="http://www.w3.org/1999/xhtml" style="display: flex; align-items: unsafe center; justify-content: unsafe center; width: 1px; height: 1px; padding-top: 437px; margin-left: 845px;"><div style="box-sizing: border-box; font-size: 0; text-align: center; "><div style="display: inline-block; font-size: 14px; font-family: PingFangSC-Regular; color: #252525; line-height: 1.2; pointer-events: none; white-space: nowrap; "><font style="font-size: 16px;">接收模型的工具调用指令<br /></font></div></div></div></foreignObject><text x="845" y="441" fill="#252525" font-family="PingFangSC-Regular" font-size="14px" text-anchor="middle">[Not supported by viewer]</text></switch></g><rect x="714" y="493" width="36" height="36" fill-opacity="0" fill="#ffffff" stroke="none" pointer-events="none" /><rect x="714" y="493" width="0" height="0" fill="none" stroke="#000000" stroke-width="2" pointer-events="none" /><path d="M 732 497 C 724.28 497 718 503.28 718 511 C 718 518.72 724.28 525 732 525 C 739.72 525 746 518.72 746 511 C 746 503.28 739.72 497 732 497 Z M 732 523 C 725.38 523 720 517.62 720 511 C 720 504.38 725.38 499 732 499 C 738.62 499 744 504.38 744 511 C 744 517.62 738.62 523 732 523 Z M 733.05 509.55 C 732.94 509.55 732.78 509.56 732.57 509.58 L 735.37 505.79 L 735.37 505.04 L 728.55 505.04 L 728.55 507.01 L 732.34 507.01 L 730.1 510.09 L 730.95 511.28 C 731.28 511.11 731.62 511.03 731.99 511.03 C 732.55 511.03 733 511.21 733.34 511.57 C 733.69 511.93 733.86 512.45 733.86 513.12 C 733.86 513.72 733.68 514.2 733.33 514.57 C 732.98 514.93 732.53 515.11 731.97 515.11 C 730.97 515.11 730.33 514.53 730.05 513.38 L 727.99 513.65 C 728.06 514.31 728.27 514.9 728.62 515.42 C 728.97 515.94 729.44 516.35 730.01 516.64 C 730.59 516.93 731.24 517.08 731.97 517.08 C 732.74 517.08 733.43 516.92 734.04 516.6 C 734.65 516.28 735.13 515.81 735.48 515.21 C 735.83 514.6 736.01 513.9 736.01 513.09 C 736.01 512.04 735.74 511.18 735.21 510.53 C 734.68 509.88 733.96 509.55 733.05 509.55 Z" fill="#252525" stroke="none" pointer-events="none" /><g><switch><foreignObject style="overflow: visible; text-align: left;" pointer-events="none" width="100%" height="100%" requiredFeatures="http://www.w3.org/TR/SVG11/feature#Extensibility"><div xmlns="http://www.w3.org/1999/xhtml" style="display: flex; align-items: unsafe center; justify-content: unsafe center; width: 1px; height: 1px; padding-top: 511px; margin-left: 820px;"><div style="box-sizing: border-box; font-size: 0; text-align: center; "><div style="display: inline-block; font-size: 14px; font-family: PingFangSC-Regular; color: #252525; line-height: 1.2; pointer-events: none; white-space: nowrap; "><font style="font-size: 16px;">在应用端运行工具<br /></font></div></div></div></foreignObject><text x="820" y="515" fill="#252525" font-family="PingFangSC-Regular" font-size="14px" text-anchor="middle">[Not supported by viewer]</text></switch></g><rect x="714" y="661" width="36" height="36" fill-opacity="0" fill="#ffffff" stroke="none" pointer-events="none" /><rect x="714" y="661" width="0" height="0" fill="none" stroke="#000000" stroke-width="2" pointer-events="none" /><path d="M 734.05 673.05 L 731.81 673.05 L 726.79 681.65 L 726.79 682.74 L 731.91 682.74 L 731.91 684.95 L 734.05 684.95 L 734.05 682.74 L 735.38 682.74 L 735.38 680.77 L 734.05 680.77 L 734.05 673.05 Z M 731.91 680.77 L 729.39 680.77 L 731.91 676.23 L 731.91 680.77 Z M 732 665 C 724.28 665 718 671.28 718 679 C 718 686.72 724.28 693 732 693 C 739.72 693 746 686.72 746 679 C 746 671.28 739.72 665 732 665 Z M 732 691 C 725.38 691 720 685.62 720 679 C 720 672.38 725.38 667 732 667 C 738.62 667 744 672.38 744 679 C 744 685.62 738.62 691 732 691 Z" fill="#252525" stroke="none" pointer-events="none" /><g><switch><foreignObject style="overflow: visible; text-align: left;" pointer-events="none" width="100%" height="100%" requiredFeatures="http://www.w3.org/TR/SVG11/feature#Extensibility"><div xmlns="http://www.w3.org/1999/xhtml" style="display: flex; align-items: unsafe center; justify-content: unsafe center; width: 1px; height: 1px; padding-top: 679px; margin-left: 830px;"><div style="box-sizing: border-box; font-size: 0; text-align: center; "><div style="display: inline-block; font-size: 14px; font-family: PingFangSC-Regular; color: #252525; line-height: 1.2; pointer-events: none; white-space: nowrap; "><font style="font-size: 16px;">发起第二次模型调用<br /></font></div></div></div></foreignObject><text x="830" y="683" fill="#252525" font-family="PingFangSC-Regular" font-size="14px" text-anchor="middle">[Not supported by viewer]</text></switch></g><rect x="714" y="741" width="36" height="36" fill-opacity="0" fill="#ffffff" stroke="none" pointer-events="none" /><rect x="714" y="741" width="0" height="0" fill="none" stroke="#000000" stroke-width="2" pointer-events="none" /><path d="M 731.83 745 C 724.11 745 717.83 751.28 717.83 759 C 717.83 766.72 724.11 773 731.83 773 C 739.55 773 745.83 766.72 745.83 759 C 745.83 751.28 739.55 745 731.83 745 Z M 731.83 771 C 725.21 771 719.83 765.62 719.83 759 C 719.83 752.38 725.22 747 731.83 747 C 738.44 747 743.83 752.38 743.83 759 C 743.83 765.62 738.45 771 731.83 771 Z M 732.13 757.06 C 731.51 757.06 730.95 757.21 730.45 757.5 L 730.72 755.02 L 735.09 755.02 L 735.09 753.05 L 728.97 753.05 L 728.31 759.75 L 729.65 760.02 C 729.94 759.69 730.27 759.43 730.64 759.24 C 731.01 759.05 731.38 758.95 731.76 758.95 C 732.36 758.95 732.82 759.13 733.15 759.48 C 733.47 759.83 733.63 760.34 733.63 761.01 C 733.63 761.68 733.48 762.21 733.18 762.57 C 732.88 762.93 732.44 763.11 731.86 763.11 C 730.89 763.11 730.29 762.56 730.08 761.46 L 728.06 761.83 C 728.13 762.48 728.33 763.05 728.68 763.54 C 729.03 764.03 729.48 764.41 730.03 764.68 C 730.58 764.95 731.2 765.08 731.87 765.08 C 732.65 765.08 733.34 764.91 733.93 764.56 C 734.52 764.21 734.98 763.73 735.3 763.11 C 735.62 762.49 735.78 761.79 735.78 760.99 C 735.78 759.78 735.47 758.82 734.86 758.11 C 734.25 757.4 733.34 757.05 732.14 757.05 Z" fill="#252525" stroke="none" pointer-events="none" /><g><switch><foreignObject style="overflow: visible; text-align: left;" pointer-events="none" width="100%" height="100%" requiredFeatures="http://www.w3.org/TR/SVG11/feature#Extensibility"><div xmlns="http://www.w3.org/1999/xhtml" style="display: flex; align-items: unsafe center; justify-content: unsafe center; width: 1px; height: 1px; padding-top: 759px; margin-left: 845px;"><div style="box-sizing: border-box; font-size: 0; text-align: center; "><div style="display: inline-block; font-size: 14px; font-family: PingFangSC-Regular; color: #252525; line-height: 1.2; pointer-events: none; white-space: nowrap; "><font style="font-size: 16px;">接收来自模型的最终响应<br /></font></div></div></div></foreignObject><text x="845" y="763" fill="#252525" font-family="PingFangSC-Regular" font-size="14px" text-anchor="middle">[Not supported by viewer]</text></switch></g></g></svg>